<svg xmlns="http://www.w3.org/2000/svg" viewBox="0 0 900 900" role="img" aria-labelledby="title">
  <title id="title">Lash studio close up</title>
  <defs>
    <radialGradient id="bg" cx=".38" cy=".3" r=".82">
      <stop offset="0" stop-color="#fff1e7"/>
      <stop offset=".62" stop-color="#d6a27f"/>
      <stop offset="1" stop-color="#5c3a31"/>
    </radialGradient>
  </defs>
  <rect width="900" height="900" fill="url(#bg)"/>
  <ellipse cx="452" cy="498" rx="310" ry="170" fill="#a76547"/>
  <path d="M178 486c138-129 398-148 548 0-137 116-399 127-548 0z" fill="#f1c2a5"/>
  <path d="M224 488c103-74 337-83 455 0-107 80-336 82-455 0z" fill="#fff7f2"/>
  <circle cx="450" cy="492" r="96" fill="#4b2f28"/>
  <circle cx="450" cy="492" r="42" fill="#16110f"/>
  <circle cx="418" cy="456" r="18" fill="#fff" opacity=".82"/>
  <g stroke="#1e1513" stroke-width="13" stroke-linecap="round">
    <path d="M217 405l-55-68"/>
    <path d="M270 376l-35-82"/>
    <path d="M333 356l-14-89"/>
    <path d="M402 347l9-91"/>
    <path d="M474 348l32-86"/>
    <path d="M545 362l55-75"/>
    <path d="M612 388l77-55"/>
    <path d="M672 425l88-30"/>
  </g>
  <path d="M169 493c143-150 425-170 565 0" fill="none" stroke="#1e1513" stroke-width="20" stroke-linecap="round"/>
</svg>
